<?xml version="1.0" encoding="UTF-8"?>
<!DOCTYPE svg PUBLIC "-//W3C//DTD SVG 1.1//EN" "http://www.w3.org/Graphics/SVG/1.1/DTD/svg11.dtd">
<svg xmlns="http://www.w3.org/2000/svg" version="1.1" width="150px" height="151px" style="shape-rendering:geometricPrecision; text-rendering:geometricPrecision; image-rendering:optimizeQuality; fill-rule:evenodd; clip-rule:evenodd" xmlns:xlink="http://www.w3.org/1999/xlink">
<g><path style="opacity:1" fill="#2f3763" d="M 64.5,-0.5 C 71.1667,-0.5 77.8333,-0.5 84.5,-0.5C 119.873,7.53959 141.54,29.2063 149.5,64.5C 149.5,71.5 149.5,78.5 149.5,85.5C 142.167,121.5 120.5,143.167 84.5,150.5C 77.8333,150.5 71.1667,150.5 64.5,150.5C 37.9097,145.436 18.4097,130.769 6,106.5C 3.18769,99.2297 1.02103,91.8963 -0.5,84.5C -0.5,78.1667 -0.5,71.8333 -0.5,65.5C 7.0399,29.6265 28.7066,7.62651 64.5,-0.5 Z"/></g>
<g><path style="opacity:1" fill="#eacd25" d="M 95.5,6.5 C 123.421,15.5925 140.255,34.5925 146,63.5C 149.838,101.846 134.172,128.513 99,143.5C 61.4185,154.028 32.0851,143.028 11,110.5C -5.06146,75.6876 0.771875,45.1876 28.5,19C 48.7661,3.17963 71.0995,-0.987038 95.5,6.5 Z"/></g>
<g><path style="opacity:1" fill="#aeadc0" d="M 5.5,88.5 C 4.66175,88.1583 4.32842,87.4916 4.5,86.5C 5.16528,84.3021 5.83195,81.9688 6.5,79.5C 8.45128,83.2264 11.6179,83.5598 16,80.5C 16.6667,82.1667 16.6667,83.8333 16,85.5C 12.8753,84.2126 9.70867,84.2126 6.5,85.5C 9.43268,87.7381 9.09935,88.7381 5.5,88.5 Z"/></g>
<g><path style="opacity:1" fill="#85849c" d="M 4.5,80.5 C 3.20565,76.2673 3.20565,71.9339 4.5,67.5C 5.55198,67.3505 6.55198,67.5172 7.5,68C 6.66337,69.0113 6.33003,70.1779 6.5,71.5C 8.72775,71.0298 10.0611,70.0298 10.5,68.5C 12.8912,69.1914 12.8912,70.1914 10.5,71.5C 11.6888,72.4287 13.0222,72.762 14.5,72.5C 14.822,70.2776 14.1554,68.4443 12.5,67C 13.7839,66.3162 14.9505,66.4829 16,67.5C 16.8184,70.2272 16.6517,72.8938 15.5,75.5C 12.227,74.4149 8.89364,74.2483 5.5,75C 4.59391,76.6995 4.26057,78.5328 4.5,80.5 Z"/></g>
<g><path style="opacity:1" fill="#2c3b68" d="M 95.5,6.5 C 134.641,23.108 150.474,52.4414 143,94.5C 130.048,130.749 104.214,147.916 65.5,146C 38.8634,141.703 20.0301,127.203 9,102.5C 7.50974,97.8725 6.34308,93.2058 5.5,88.5C 9.09935,88.7381 9.43268,87.7381 6.5,85.5C 9.70867,84.2126 12.8753,84.2126 16,85.5C 16.6667,83.8333 16.6667,82.1667 16,80.5C 11.6179,83.5598 8.45128,83.2264 6.5,79.5C 5.83195,81.9688 5.16528,84.3021 4.5,86.5C 4.5,84.5 4.5,82.5 4.5,80.5C 4.26057,78.5328 4.59391,76.6995 5.5,75C 8.89364,74.2483 12.227,74.4149 15.5,75.5C 16.6517,72.8938 16.8184,70.2272 16,67.5C 14.9505,66.4829 13.7839,66.3162 12.5,67C 14.1554,68.4443 14.822,70.2776 14.5,72.5C 13.0222,72.762 11.6888,72.4287 10.5,71.5C 12.8912,70.1914 12.8912,69.1914 10.5,68.5C 10.0611,70.0298 8.72775,71.0298 6.5,71.5C 6.33003,70.1779 6.66337,69.0113 7.5,68C 6.55198,67.5172 5.55198,67.3505 4.5,67.5C 9.75926,33.7366 29.0926,12.9032 62.5,5C 73.5831,4.08672 84.5831,4.58672 95.5,6.5 Z"/></g>
<g><path style="opacity:1" fill="#9698b1" d="M 81.5,133.5 C 84.1059,136.128 86.4392,139.128 88.5,142.5C 87.277,143.614 85.9437,143.781 84.5,143C 84.9574,142.586 85.2907,142.086 85.5,141.5C 84.3112,140.571 82.9778,140.238 81.5,140.5C 81.33,141.822 81.6634,142.989 82.5,144C 81.1667,144.667 79.8333,144.667 78.5,144C 80.0821,140.689 81.0821,137.189 81.5,133.5 Z"/></g>
<g><path style="opacity:1" fill="#ccccd8" d="M 64.5,132.5 C 66.4672,132.261 68.3005,132.594 70,133.5C 70.6667,134.5 70.6667,135.5 70,136.5C 68.5219,133.007 66.5219,132.674 64,135.5C 62.3166,140.101 63.8166,142.601 68.5,143C 62.808,143.843 60.6413,141.343 62,135.5C 63.045,134.627 63.8783,133.627 64.5,132.5 Z"/></g>
<g><path style="opacity:1" fill="#b6b6c8" d="M 53.5,129.5 C 54.8734,129.343 56.2068,129.51 57.5,130C 55.6711,130.273 54.1711,131.107 53,132.5C 52.5034,134.81 52.3367,137.143 52.5,139.5C 57.6775,139.477 59.8442,136.81 59,131.5C 61.0097,134.655 60.5097,137.488 57.5,140C 51.3242,141.188 49.1575,138.688 51,132.5C 52.045,131.627 52.8783,130.627 53.5,129.5 Z"/></g>
<g><path style="opacity:1" fill="#bcbccc" d="M 92.5,129.5 C 95.1662,129.066 96.3329,130.066 96,132.5C 94.6841,129.972 93.5174,129.972 92.5,132.5C 93.4679,135.273 94.8012,137.773 96.5,140C 95.4071,141.365 94.0738,141.699 92.5,141C 92.9574,140.586 93.2907,140.086 93.5,139.5C 92.4229,137.271 91.7563,134.937 91.5,132.5C 89.8762,132.36 88.7096,133.027 88,134.5C 87.8333,134 87.6667,133.5 87.5,133C 88.921,131.377 90.5876,130.21 92.5,129.5 Z"/></g>
<g><path style="opacity:1" fill="#cfcfda" d="M 96.5,127.5 C 97.675,127.281 98.675,127.614 99.5,128.5C 101.166,131.641 102.499,134.474 103.5,137C 103.167,137.167 102.833,137.333 102.5,137.5C 100.969,133.753 98.9694,130.419 96.5,127.5 Z"/></g>
<g><path style="opacity:1" fill="#ceceda" d="M 72.5,134.5 C 73.6009,133.402 74.9343,133.235 76.5,134C 75.1667,137.333 75.1667,140.667 76.5,144C 75.1667,144.667 73.8333,144.667 72.5,144C 73.8184,140.731 73.8184,137.565 72.5,134.5 Z"/></g>
<g><path style="opacity:1" fill="#b5b5c7" d="M 112.5,131.5 C 108.979,134.494 106.146,133.827 104,129.5C 103.333,128.167 103.333,126.833 104,125.5C 105.049,130.051 107.882,132.051 112.5,131.5 Z"/></g>
<g><path style="opacity:1" fill="#ccccd8" d="M 44.5,127.5 C 45.5577,129.749 46.8911,131.915 48.5,134C 45.8333,138.667 43.1667,138.667 40.5,134C 40.6301,132.941 41.1301,132.108 42,131.5C 42.3333,132.833 42.6667,134.167 43,135.5C 45.8288,136.674 46.8288,135.674 46,132.5C 43.676,131.225 43.176,129.558 44.5,127.5 Z"/></g>
<g><path style="opacity:1" fill="#c2c2d0" d="M 37.5,121.5 C 42.4943,121.295 43.9943,123.295 42,127.5C 41.6667,126.167 41.3333,124.833 41,123.5C 40.3333,122.167 39.6667,122.167 39,123.5C 38.4712,125.585 38.9712,127.418 40.5,129C 40.0459,130.622 39.0459,131.788 37.5,132.5C 38.0057,129.087 38.0057,125.42 37.5,121.5 Z"/></g>
<g><path style="opacity:1" fill="#dedee6" d="M 112.5,131.5 C 112.927,126.424 110.593,123.591 105.5,123C 112.486,122.166 114.819,124.999 112.5,131.5 Z"/></g>
<g><path style="opacity:1" fill="#9092ad" d="M 30.5,116.5 C 31.9778,116.238 33.3112,116.571 34.5,117.5C 32.3325,120.469 30.9992,123.803 30.5,127.5C 29.7132,126.758 29.0465,125.925 28.5,125C 31.1562,122.771 30.8229,120.938 27.5,119.5C 26.5009,123.237 25.1675,123.237 23.5,119.5C 25.7865,119.159 28.1198,118.159 30.5,116.5 Z"/></g>
<g><path style="opacity:1" fill="#a0a1b8" d="M 114.5,113.5 C 115.458,113.047 116.292,112.381 117,111.5C 118.371,114.88 120.538,117.713 123.5,120C 120.5,120.333 117.5,120.667 114.5,121C 115.696,121.654 115.696,122.154 114.5,122.5C 113.088,121.194 111.421,120.36 109.5,120C 112.638,118.756 115.972,118.089 119.5,118C 118.333,116.833 117.167,115.667 116,114.5C 114.893,115.712 114.393,115.379 114.5,113.5 Z"/></g>
<g><path style="opacity:1" fill="#f3f2f5" d="M 15.5,98.5 C 22.2973,99.1073 23.9639,102.274 20.5,108C 12.4079,108.09 10.7412,104.923 15.5,98.5 Z"/></g>
<g><path style="opacity:1" fill="#f5f5f7" d="M 129.5,97.5 C 136.803,98.2666 138.136,101.433 133.5,107C 128.667,107.5 126.5,105.333 127,100.5C 127.698,99.3094 128.531,98.3094 129.5,97.5 Z"/></g>
<g><path style="opacity:1" fill="#e9cd24" d="M 114.5,113.5 C 91.1944,133.855 66.5278,135.688 40.5,119C 19.8119,100.08 14.6452,77.5799 25,51.5C 39.5451,26.6507 61.0451,17.1507 89.5,23C 121.04,35.9104 133.206,59.0771 126,92.5C 123.172,100.164 119.339,107.164 114.5,113.5 Z"/></g>
<g><path style="opacity:1" fill="#9c9db4" d="M 139.5,79.5 C 140.209,78.596 141.209,78.2627 142.5,78.5C 142.663,80.8568 142.497,83.1902 142,85.5C 141.275,87.158 140.108,87.658 138.5,87C 140.481,86.3946 140.815,85.3946 139.5,84C 136.571,83.2228 133.737,83.3895 131,84.5C 130.202,82.7412 130.369,81.0745 131.5,79.5C 134.568,81.4566 137.901,81.9566 141.5,81C 140.956,80.2828 140.289,79.7828 139.5,79.5 Z"/></g>
<g><path style="opacity:1" fill="#9394ae" d="M 140.5,65.5 C 142.04,67.8383 142.706,70.5049 142.5,73.5C 141.448,73.6495 140.448,73.4828 139.5,73C 140.38,71.6439 140.714,70.1439 140.5,68.5C 137.795,68.3802 137.128,69.3802 138.5,71.5C 137.833,71.8333 137.167,72.1667 136.5,72.5C 136.061,70.9702 134.728,69.9702 132.5,69.5C 132.328,71.4918 132.995,73.1585 134.5,74.5C 133.349,75.731 132.183,75.731 131,74.5C 130.333,71.8333 130.333,69.1667 131,66.5C 134.317,67.4015 137.484,67.0681 140.5,65.5 Z"/></g>
<g><path style="opacity:1" fill="#cdcdd8" d="M 15.5,55.5 C 16.675,55.281 17.675,55.6143 18.5,56.5C 18.1667,56.8333 17.8333,57.1667 17.5,57.5C 13.53,58.2355 10.03,59.9021 7,62.5C 6.25061,61.365 6.41728,60.365 7.5,59.5C 10.507,58.6633 13.1737,57.3299 15.5,55.5 Z"/></g>
<g><path style="opacity:1" fill="#bfbfce" d="M 136.5,52.5 C 138.048,52.8212 138.715,53.8212 138.5,55.5C 136.897,55.3118 135.563,55.8118 134.5,57C 135.167,57.3333 135.833,57.6667 136.5,58C 133.97,59.1951 131.97,61.0284 130.5,63.5C 130.167,63.1667 129.833,62.8333 129.5,62.5C 130.5,61.1667 131.5,59.8333 132.5,58.5C 130.993,57.2612 129.826,57.5946 129,59.5C 128.5,58.5 128,57.5 127.5,56.5C 130.955,55.9013 133.955,54.568 136.5,52.5 Z"/></g>
<g><path style="opacity:1" fill="#dfdfe7" d="M 21.5,42.5 C 22.4734,42.9867 23.4734,43.4867 24.5,44C 21.1667,44.6667 17.8333,45.3333 14.5,46C 15.6956,46.6543 15.6956,47.1543 14.5,47.5C 13.3279,47.0814 12.3279,46.4147 11.5,45.5C 15.0165,44.7066 18.3498,43.7066 21.5,42.5 Z"/></g>
<g><path style="opacity:1" fill="#c4c4d2" d="M 127.5,41.5 C 129.655,41.372 131.655,41.872 133.5,43C 125.37,43.2514 123.537,46.4181 128,52.5C 123.538,49.1657 123.371,45.499 127.5,41.5 Z"/></g>
<g><path style="opacity:1" fill="#c9c9d6" d="M 126.5,32.5 C 127.837,33.3149 128.837,34.4815 129.5,36C 125.501,36.6678 122.668,38.8345 121,42.5C 119.77,41.7248 119.437,40.7248 120,39.5C 123.12,37.8866 125.287,35.5533 126.5,32.5 Z"/></g>
<g><path style="opacity:1" fill="#ababbf" d="M 34.5,32.5 C 32.7505,34.8954 31.0839,34.8954 29.5,32.5C 30.8875,32.1928 32.5542,32.1928 34.5,32.5 Z"/></g>
<g><path style="opacity:1" fill="#c2c1d0" d="M 20.5,31.5 C 23.0603,34.2197 26.0603,36.3864 29.5,38C 28.6667,38.8333 27.8333,39.6667 27,40.5C 25.0194,37.2553 22.1861,35.0886 18.5,34C 19.3805,33.2917 20.0472,32.4584 20.5,31.5 Z"/></g>
<g><path style="opacity:1" fill="#dbdbe3" d="M 120.5,26.5 C 121.573,27.2506 121.74,28.2506 121,29.5C 117.93,30.2958 116.263,32.2958 116,35.5C 114.643,31.8571 115.81,29.6904 119.5,29C 120.252,28.3292 120.586,27.4959 120.5,26.5 Z"/></g>
<g><path style="opacity:1" fill="#414068" d="M 66.5,22.5 C 90.4379,20.8842 108.605,30.2175 121,50.5C 133.223,79.8284 126.39,103.662 100.5,122C 72.5925,134.8 49.0925,129.3 30,105.5C 13.9754,74.4355 20.1421,48.9355 48.5,29C 54.2986,25.9183 60.2986,23.7516 66.5,22.5 Z"/></g>
<g><path style="opacity:1" fill="#aaabbf" d="M 34.5,32.5 C 34.5,31.5 34.5,30.5 34.5,29.5C 32.4086,29.3184 30.4086,29.6518 28.5,30.5C 24.4312,27.8711 24.5978,25.5378 29,23.5C 32.3124,25.1212 32.3124,25.4545 29,24.5C 28.3076,25.0253 27.8076,25.6919 27.5,26.5C 30.0865,27.48 32.7531,27.8134 35.5,27.5C 35.7845,29.4147 35.4511,31.0813 34.5,32.5 Z"/></g>
<g><path style="opacity:1" fill="#e7e6ec" d="M 117.5,23.5 C 118.525,23.8966 118.692,24.5632 118,25.5C 116,27.5 114,29.5 112,31.5C 111.333,30.8333 111.333,30.1667 112,29.5C 114.04,27.6298 115.873,25.6298 117.5,23.5 Z"/></g>
<g><path style="opacity:1" fill="#f8f6f2" d="M 64.5,24.5 C 96.8109,22.0034 116.978,36.3367 125,67.5C 127.068,100.535 111.902,120.369 79.5,127C 55.2419,128.293 37.7419,118.126 27,96.5C 16.5838,60.3266 29.0838,36.3266 64.5,24.5 Z"/></g>
<g><path style="opacity:1" fill="#323864" d="M 71.5,115.5 C 73.1667,115.5 74.8333,115.5 76.5,115.5C 76.4208,116.93 76.7542,118.264 77.5,119.5C 76.2402,120.382 75.0736,121.382 74,122.5C 72.6932,121.228 71.1932,120.228 69.5,119.5C 70.8532,118.476 71.5198,117.143 71.5,115.5 Z"/></g>
<g><path style="opacity:1" fill="#2c3464" d="M 95.5,108.5 C 96.3164,110.144 97.6498,111.31 99.5,112C 98.1068,113.171 97.2735,114.671 97,116.5C 95.6667,115.167 94.3333,115.167 93,116.5C 92.654,114.782 92.154,113.115 91.5,111.5C 93.1836,110.85 94.5169,109.85 95.5,108.5 Z"/></g>
<g><path style="opacity:1" fill="#2f3564" d="M 51.5,108.5 C 53.0145,109.68 54.6812,110.68 56.5,111.5C 55.7542,112.736 55.4208,114.07 55.5,115.5C 53.8561,115.286 52.3561,115.62 51,116.5C 50.7265,114.671 49.8932,113.171 48.5,112C 50.4257,111.578 51.4257,110.411 51.5,108.5 Z"/></g>
<g><path style="opacity:1" fill="#273164" d="M 109.5,93.5 C 111.086,94.1481 112.753,94.6481 114.5,95C 113.167,96.3333 113.167,97.6667 114.5,99C 112.924,99.4396 111.59,100.273 110.5,101.5C 109.646,100.052 108.646,98.7187 107.5,97.5C 108.853,96.4763 109.52,95.143 109.5,93.5 Z"/></g>
<g><path style="opacity:1" fill="#303564" d="M 37.5,92.5 C 38.926,93.8015 40.2593,95.3015 41.5,97C 39.6969,97.6368 38.3636,98.8035 37.5,100.5C 36.4096,99.273 35.0762,98.4396 33.5,98C 34.3366,96.9887 34.67,95.8221 34.5,94.5C 36.1788,94.7148 37.1788,94.0481 37.5,92.5 Z"/></g>
<g><path style="opacity:1" fill="#252f64" d="M 117.5,72.5 C 118.316,74.1436 119.65,75.3103 121.5,76C 119.667,76.5 118.5,77.6667 118,79.5C 116.601,78.7734 115.101,78.2734 113.5,78C 114.833,76.6667 114.833,75.3333 113.5,74C 115.058,73.79 116.391,73.29 117.5,72.5 Z"/></g>
<g><path style="opacity:1" fill="#323764" d="M 29.5,71.5 C 31.4817,71.9954 33.4817,72.4954 35.5,73C 34.6198,74.3561 34.2865,75.8561 34.5,77.5C 32.857,77.4802 31.5237,78.1468 30.5,79.5C 29.7717,77.8068 28.7717,76.3068 27.5,75C 28.9733,74.2904 29.6399,73.1238 29.5,71.5 Z"/></g>
<g><path style="opacity:1" fill="#322e2b" d="M 81.5,102.5 C 80.5386,104.265 80.2053,106.265 80.5,108.5C 80.5,109.167 80.8333,109.5 81.5,109.5C 80.791,110.404 79.791,110.737 78.5,110.5C 78.1583,109.662 77.4916,109.328 76.5,109.5C 76.5,108.167 76.5,106.833 76.5,105.5C 78.271,93.895 79.6043,82.2284 80.5,70.5C 82.1667,70.5 83.8333,70.5 85.5,70.5C 84.0936,81.1571 82.7603,91.8238 81.5,102.5 Z"/></g>
<g><path style="opacity:1" fill="#3d3f6a" d="M 81.5,109.5 C 80.8333,109.5 80.5,109.167 80.5,108.5C 101.201,101.956 109.701,87.9561 106,66.5C 99.2775,48.8801 86.4441,41.0468 67.5,43C 50.7965,47.8852 41.7965,59.0518 40.5,76.5C 41.5966,89.7156 47.9299,99.3823 59.5,105.5C 59.8417,106.338 60.5084,106.672 61.5,106.5C 62.5137,107.674 63.847,108.34 65.5,108.5C 67.1667,108.5 68.8333,108.5 70.5,108.5C 71.5676,109.434 72.901,109.768 74.5,109.5C 75.1667,109.5 75.8333,109.5 76.5,109.5C 77.4916,109.328 78.1583,109.662 78.5,110.5C 54.4308,111.095 41.4308,99.4282 39.5,75.5C 42.1373,51.7009 55.4706,40.2009 79.5,41C 100.952,47.1232 110.452,61.2899 108,83.5C 104.568,97.7659 95.7349,106.433 81.5,109.5 Z"/></g>
<g><path style="opacity:1" fill="#cac3b5" d="M 73.5,104.5 C 74.391,105.11 75.391,105.443 76.5,105.5C 76.5,106.833 76.5,108.167 76.5,109.5C 75.8333,109.5 75.1667,109.5 74.5,109.5C 73.962,107.883 73.6287,106.216 73.5,104.5 Z"/></g>
<g><path style="opacity:1" fill="#736e5e" d="M 65.5,72.5 C 64.6981,71.0484 64.1981,69.3817 64,67.5C 63.586,67.9574 63.086,68.2907 62.5,68.5C 61.5009,81.1492 61.1676,93.8158 61.5,106.5C 60.5084,106.672 59.8417,106.338 59.5,105.5C 60.404,104.791 60.7373,103.791 60.5,102.5C 60.5,98.1667 60.5,93.8333 60.5,89.5C 60.5,87.8333 60.5,86.1667 60.5,84.5C 60.3339,78.8236 60.5006,73.1569 61,67.5C 62.3561,66.6198 63.8561,66.2865 65.5,66.5C 65.5,68.5 65.5,70.5 65.5,72.5 Z"/></g>
<g><path style="opacity:1" fill="#2e2a28" d="M 65.5,72.5 C 66.8249,71.0474 67.6582,71.3808 68,73.5C 70.2867,83.7653 72.12,94.0987 73.5,104.5C 73.6287,106.216 73.962,107.883 74.5,109.5C 72.901,109.768 71.5676,109.434 70.5,108.5C 70.0405,105.123 69.3739,101.789 68.5,98.5C 67.6849,94.8559 66.8516,91.1893 66,87.5C 65.5034,89.8098 65.3367,92.1432 65.5,94.5C 65.5,99.1667 65.5,103.833 65.5,108.5C 63.847,108.34 62.5137,107.674 61.5,106.5C 61.1676,93.8158 61.5009,81.1492 62.5,68.5C 63.086,68.2907 63.586,67.9574 64,67.5C 64.1981,69.3817 64.6981,71.0484 65.5,72.5 Z"/></g>
<g><path style="opacity:1" fill="#f4f0e9" d="M 65.5,94.5 C 66.5,95.8333 67.5,97.1667 68.5,98.5C 69.3739,101.789 70.0405,105.123 70.5,108.5C 68.8333,108.5 67.1667,108.5 65.5,108.5C 65.5,103.833 65.5,99.1667 65.5,94.5 Z"/></g>
<g><path style="opacity:1" fill="#262f64" d="M 110.5,50.5 C 111.882,51.8005 113.548,52.6339 115.5,53C 114.833,53.6667 114.167,54.3333 113.5,55C 114.863,57.1293 114.529,57.6293 112.5,56.5C 111.522,56.9767 110.689,57.6433 110,58.5C 109.727,56.6711 108.893,55.1711 107.5,54C 109.426,53.5776 110.426,52.4109 110.5,50.5 Z"/></g>
<g><path style="opacity:1" fill="#303664" d="M 37.5,49.5 C 38.4511,51.118 39.7844,52.4513 41.5,53.5C 40.3539,54.7187 39.3539,56.0521 38.5,57.5C 37.2638,56.7542 35.9305,56.4208 34.5,56.5C 34.7135,54.8561 34.3802,53.3561 33.5,52C 35.3197,51.7996 36.653,50.9663 37.5,49.5 Z"/></g>
<g><path style="opacity:1" fill="#f7f5f2" d="M 80.5,108.5 C 80.2053,106.265 80.5386,104.265 81.5,102.5C 81.4701,103.497 81.9701,104.164 83,104.5C 92.8333,101.333 99.3333,94.8333 102.5,85C 96.4049,78.6417 90.9049,71.8084 86,64.5C 83.0226,58.7124 80.1892,52.879 77.5,47C 63.8883,45.0565 53.7217,50.2231 47,62.5C 46.3333,64.5 46.3333,66.5 47,68.5C 51.7403,73.7311 56.2403,79.0644 60.5,84.5C 60.5,86.1667 60.5,87.8333 60.5,89.5C 56.2896,83.1098 51.4563,77.1098 46,71.5C 42.8001,85.4981 47.6335,95.8314 60.5,102.5C 60.7373,103.791 60.404,104.791 59.5,105.5C 47.9299,99.3823 41.5966,89.7156 40.5,76.5C 41.7965,59.0518 50.7965,47.8852 67.5,43C 86.4441,41.0468 99.2775,48.8801 106,66.5C 109.701,87.9561 101.201,101.956 80.5,108.5 Z"/></g>
<g><path style="opacity:1" fill="#cfaf40" d="M 68.5,98.5 C 67.5,97.1667 66.5,95.8333 65.5,94.5C 65.3367,92.1432 65.5034,89.8098 66,87.5C 66.8516,91.1893 67.6849,94.8559 68.5,98.5 Z"/></g>
<g><path style="opacity:1" fill="#dfb92e" d="M 60.5,89.5 C 60.5,93.8333 60.5,98.1667 60.5,102.5C 47.6335,95.8314 42.8001,85.4981 46,71.5C 51.4563,77.1098 56.2896,83.1098 60.5,89.5 Z"/></g>
<g><path style="opacity:1" fill="#dcb937" d="M 89.5,50.5 C 100.745,57.3052 105.078,66.9718 102.5,79.5C 92.4924,70.8211 85.4924,60.1545 81.5,47.5C 84.6489,47.4152 87.3155,48.4152 89.5,50.5 Z"/></g>
<g><path style="opacity:1" fill="#332f2c" d="M 89.5,50.5 C 91.6672,53.501 93.3339,56.8343 94.5,60.5C 93.7699,62.0062 93.4366,63.3395 93.5,64.5C 89.0684,60.5578 87.7351,55.8912 89.5,50.5 Z"/></g>
<g><path style="opacity:1" fill="#dcb72a" d="M 81.5,102.5 C 82.7603,91.8238 84.0936,81.1571 85.5,70.5C 83.8333,70.5 82.1667,70.5 80.5,70.5C 79.6043,82.2284 78.271,93.895 76.5,105.5C 75.391,105.443 74.391,105.11 73.5,104.5C 72.12,94.0987 70.2867,83.7653 68,73.5C 67.6582,71.3808 66.8249,71.0474 65.5,72.5C 65.5,70.5 65.5,68.5 65.5,66.5C 63.8561,66.2865 62.3561,66.6198 61,67.5C 60.5006,73.1569 60.3339,78.8236 60.5,84.5C 56.2403,79.0644 51.7403,73.7311 47,68.5C 46.3333,66.5 46.3333,64.5 47,62.5C 53.7217,50.2231 63.8883,45.0565 77.5,47C 80.1892,52.879 83.0226,58.7124 86,64.5C 90.9049,71.8084 96.4049,78.6417 102.5,85C 99.3333,94.8333 92.8333,101.333 83,104.5C 81.9701,104.164 81.4701,103.497 81.5,102.5 Z"/></g>
<g><path style="opacity:1" fill="#36312c" d="M 58.5,59.5 C 62.4772,60.2441 66.1439,61.7441 69.5,64C 64.2727,65.8614 59.606,64.8614 55.5,61C 56.7375,60.7679 57.7375,60.2679 58.5,59.5 Z"/></g>
<g><path style="opacity:1" fill="#303364" d="M 97.5,34.5 C 100.18,37.5252 99.8463,40.1919 96.5,42.5C 95.1667,41.5 93.8333,40.5 92.5,39.5C 93.7111,38.2798 93.7111,37.1131 92.5,36C 93.549,35.5078 94.549,35.6744 95.5,36.5C 96.5223,36.1445 97.189,35.4778 97.5,34.5 Z"/></g>
<g><path style="opacity:1" fill="#353864" d="M 50.5,34.5 C 52.1172,35.038 53.7839,35.3713 55.5,35.5C 55.2965,37.3904 55.9632,38.8904 57.5,40C 55.6711,40.2735 54.1711,41.1068 53,42.5C 52.5,40.6667 51.3333,39.5 49.5,39C 50.3802,37.6439 50.7135,36.1439 50.5,34.5 Z"/></g>
<g><path style="opacity:1" fill="#3b3c64" d="M 73.5,28.5 C 75.2128,29.305 76.8794,30.305 78.5,31.5C 77.9851,33.2251 77.3184,34.8917 76.5,36.5C 75.2638,35.7542 73.9305,35.4208 72.5,35.5C 72.5198,33.857 71.8532,32.5237 70.5,31.5C 71.9935,30.8589 72.9935,29.8589 73.5,28.5 Z"/></g>
<g><path style="opacity:1" fill="#a3a4ba" d="M 38.5,15.5 C 40.6732,17.2826 42.8399,19.2826 45,21.5C 45.5628,22.7248 45.2295,23.7248 44,24.5C 43.5172,23.552 43.3505,22.552 43.5,21.5C 42.1667,21.5 40.8333,21.5 39.5,21.5C 39.1367,23.9115 40.1367,25.4115 42.5,26C 41.5838,26.3742 40.7504,26.8742 40,27.5C 38.5373,24.0486 36.3706,21.2153 33.5,19C 35.3464,17.9702 37.0131,16.8036 38.5,15.5 Z"/></g>
<g><path style="opacity:1" fill="#cacad6" d="M 105.5,16.5 C 108.885,15.7896 111.219,16.9563 112.5,20C 112.37,21.0588 111.87,21.8921 111,22.5C 111.29,18.9106 109.79,17.4106 106.5,18C 104.396,20.0424 103.229,22.5424 103,25.5C 101.927,21.9003 102.76,18.9003 105.5,16.5 Z"/></g>
<g><path style="opacity:1" fill="#a2a3b9" d="M 58.5,8.5 C 59.209,7.59603 60.209,7.26269 61.5,7.5C 61.5079,10.5448 61.8413,13.5448 62.5,16.5C 63.8333,16.5 65.1667,16.5 66.5,16.5C 66.281,15.325 66.6143,14.325 67.5,13.5C 68.4287,14.6888 68.762,16.0222 68.5,17.5C 65.8333,17.8333 63.1667,18.1667 60.5,18.5C 60.6646,15.4816 60.498,12.4816 60,9.5C 59.6174,8.94404 59.1174,8.61071 58.5,8.5 Z"/></g>
<g><path style="opacity:1" fill="#9293ad" d="M 48.5,10.5 C 51.6163,12.7867 54.283,15.62 56.5,19C 54.6886,18.1247 52.6886,17.7914 50.5,18C 49.5419,19.1475 49.8753,20.1475 51.5,21C 50.4071,22.3654 49.0738,22.6987 47.5,22C 48.4601,18.27 48.7935,14.4367 48.5,10.5 Z"/></g>
<g><path style="opacity:1" fill="#a2a3b9" d="M 70.5,6.5 C 71.9464,5.38705 73.6131,5.22039 75.5,6C 73.6556,8.80367 72.9889,11.9703 73.5,15.5C 75.4918,15.6715 77.1585,15.0049 78.5,13.5C 79.8899,15.4946 79.3899,16.828 77,17.5C 74.8649,16.8729 72.6982,16.3729 70.5,16C 71.8184,12.7312 71.8184,9.56454 70.5,6.5 Z"/></g>
</svg>
